<?xml version="1.0" encoding="UTF-8" standalone="no"?>
<!-- Created with Inkscape (http://www.inkscape.org/) -->

<svg
   width="210mm"
   height="297mm"
   viewBox="0 0 210 297"
   version="1.1"
   id="svg5"
   inkscape:version="1.1.2 (b8e25be833, 2022-02-05)"
   sodipodi:docname="logo devantarch dark.svg"
   inkscape:export-filename="C:\Users\ilari\Desktop\logo devantarch.png"
   inkscape:export-xdpi="96"
   inkscape:export-ydpi="96"
   xmlns:inkscape="http://www.inkscape.org/namespaces/inkscape"
   xmlns:sodipodi="http://sodipodi.sourceforge.net/DTD/sodipodi-0.dtd"
   xmlns="http://www.w3.org/2000/svg"
   xmlns:svg="http://www.w3.org/2000/svg">
  <sodipodi:namedview
     id="namedview7"
     pagecolor="#ffffff"
     bordercolor="#666666"
     borderopacity="1.0"
     inkscape:pageshadow="2"
     inkscape:pageopacity="0.0"
     inkscape:pagecheckerboard="0"
     inkscape:document-units="mm"
     showgrid="false"
     showguides="true"
     inkscape:guide-bbox="true"
     inkscape:snap-bbox="false"
     inkscape:snap-global="true"
     inkscape:zoom="2.932688"
     inkscape:cx="485.39088"
     inkscape:cy="257.443"
     inkscape:window-width="1920"
     inkscape:window-height="1009"
     inkscape:window-x="-8"
     inkscape:window-y="-8"
     inkscape:window-maximized="1"
     inkscape:current-layer="g102640" />
  <defs
     id="defs2">
    <inkscape:perspective
       sodipodi:type="inkscape:persp3d"
       inkscape:vp_x="52.732528 : 158.96537 : 1"
       inkscape:vp_y="0 : 1000 : 0"
       inkscape:vp_z="207.25384 : 93.286147 : 1"
       inkscape:persp3d-origin="89.936081 : 43.786147 : 1"
       id="perspective12581" />
  </defs>
  <g
     inkscape:label="Capa 1"
     inkscape:groupmode="layer"
     id="layer1">
    <g
       id="g102640"
       transform="matrix(1.5642078,0,0,1.5642078,-18.511565,-174.28908)">
      <rect
         style="fill:#ffffff;fill-opacity:1;stroke-width:0.0702845"
         id="rect21953"
         width="27.632324"
         height="17.474279"
         x="79.422676"
         y="144.53021"
         ry="0"
         inkscape:export-filename="C:\Users\ilari\Desktop\rect21953.png"
         inkscape:export-xdpi="96"
         inkscape:export-ydpi="96" />
      <path
         id="rect13094-7"
         style="fill:#000000;fill-opacity:1;stroke-width:0.0843905"
         d="m 79.422678,144.53021 v 1.31599 c 0.03214,0.10258 0.06597,0.20681 0.10079,0.30558 0.08562,0.24281 0.377362,0.9417 0.412988,0.98935 0.01272,0.017 0.06891,0.11439 0.12486,0.21642 0.551443,1.00558 1.643071,2.20036 2.572503,2.8155 0.778064,0.51495 1.86648,0.98333 2.729755,1.17468 0.953262,0.21131 1.446065,0.25536 2.271839,0.20318 0.88598,-0.056 1.792613,-0.24664 2.514336,-0.52882 0.174953,-0.0684 0.33125,-0.12433 0.347296,-0.12425 0.01606,6e-5 0.274978,0.24244 0.575357,0.53865 0.630792,0.62199 0.617293,0.5521 0.147825,0.77031 -1.170781,0.54419 -2.370331,0.8144 -3.754903,0.84584 -0.971243,0.0221 -1.719163,-0.0607 -2.581631,-0.28593 -0.229569,-0.0599 -0.466092,-0.12175 -0.525612,-0.13729 -0.521573,-0.13616 -1.650907,-0.65557 -2.256995,-1.03809 -0.63323,-0.39965 -1.384757,-1.01787 -1.868577,-1.53702 -0.299814,-0.32171 -0.567701,-0.64553 -0.809831,-0.97802 v 0.867 c 0.516005,0.61473 1.112813,1.16786 1.812717,1.68495 0.540065,0.39901 0.950116,0.6476 1.500718,0.90971 0.790211,0.37619 1.569628,0.65484 2.25519,0.80633 0.988375,0.2184 2.168985,0.29793 3.138733,0.2113 0.380241,-0.034 1.213974,-0.16487 1.468623,-0.23056 0.776574,-0.20031 1.501116,-0.46261 2.099744,-0.76019 0.202582,-0.1007 0.384461,-0.18312 0.404163,-0.18312 0.0197,0 0.132211,0.0661 0.250023,0.14702 0.685719,0.47075 1.735539,1.02787 2.516739,1.33554 1.077194,0.42423 2.450377,0.68976 3.81919,0.73853 0.06802,0.002 0.388056,-0.009 0.711146,-0.0262 l -3.94e-4,6.1e-4 c 1.10322,-0.0577 1.98849,-0.22348 2.99903,-0.56172 1.78378,-0.59704 3.37042,-1.63375 4.6567,-3.03864 v -0.75789 c -0.36098,0.4279 -0.83935,0.92866 -1.17418,1.2154 -0.92673,0.79364 -2.13734,1.52698 -3.1972,1.93667 -0.35158,0.13591 -1.00444,0.33853 -1.29011,0.40046 -0.0935,0.0202 -0.30923,0.0704 -0.47928,0.11142 -0.41754,0.10071 -0.967182,0.16751 -1.63972,0.19917 -1.264521,0.0595 -2.574772,-0.12428 -3.770852,-0.52892 -0.75628,-0.25586 -1.963466,-0.81064 -1.963245,-0.9023 6.1e-5,-0.0201 0.18042,-0.17275 0.400754,-0.33917 0.220333,-0.16643 0.47416,-0.36847 0.564122,-0.44889 0.08995,-0.0804 0.185427,-0.16303 0.212107,-0.18353 0.03964,-0.0305 0.118444,-0.006 0.431342,0.13388 2.287743,1.02246 4.961062,1.02451 7.388762,0.006 0.76033,-0.31909 1.68992,-0.91042 2.30053,-1.46341 0.99364,-0.8999 1.63445,-1.73224 2.1921,-2.84699 0.009,-0.0171 0.0164,-0.0345 0.0249,-0.0516 v -1.45499 c -0.17352,0.53905 -0.42613,1.16123 -0.60665,1.46923 -0.0594,0.10131 -0.10801,0.18997 -0.10801,0.19696 0,0.0252 -0.33334,0.56099 -0.48861,0.78536 -0.40256,0.58173 -1.04556,1.26605 -1.64382,1.74954 -1.06502,0.86068 -2.45965,1.49934 -3.8192,1.74873 -0.747614,0.13715 -1.546826,0.18111 -2.195215,0.12085 -0.829102,-0.077 -1.451827,-0.20467 -2.10245,-0.43084 -0.386916,-0.1345 -0.881138,-0.36483 -0.881138,-0.41068 0,-0.0169 0.108303,-0.15088 0.240596,-0.29766 0.296476,-0.32892 0.529508,-0.60575 0.621487,-0.73832 0.08118,-0.11701 0.11831,-0.12157 0.332256,-0.0402 0.275553,0.10473 1.06599,0.30894 1.387293,0.35833 0.51984,0.0799 1.259597,0.0927 1.805999,0.0312 2.035392,-0.2291 3.820522,-1.25592 5.001192,-2.87678 0.27147,-0.37268 0.49635,-0.73571 0.62369,-1.00659 0.36319,-0.77257 0.5503,-1.37124 0.65659,-2.13074 h -0.56272 c -0.021,0.12451 -0.0467,0.25526 -0.0787,0.40106 -0.15565,0.70945 -0.51094,1.53108 -0.9384,2.17014 -1.48953,2.22687 -4.15284,3.32214 -6.785833,2.79063 -2.444651,-0.4935 -4.405689,-2.3614 -5.039803,-4.80041 -0.05081,-0.19546 -0.08821,-0.37224 -0.117135,-0.56142 h -0.542761 c 0.07284,0.54332 0.167003,0.87184 0.357026,1.40585 0.113766,0.31972 0.418505,0.95467 0.601031,1.2522 0.618909,1.0089 1.642492,1.98488 2.646412,2.52347 0.130644,0.0701 0.223835,0.14019 0.224149,0.16858 0.0012,0.0917 -0.868856,1.07991 -0.95054,1.07991 -0.05211,0 -0.511763,-0.27363 -0.811233,-0.48289 -0.739881,-0.51701 -1.527956,-1.29222 -2.096432,-2.06234 -0.131876,-0.17865 -0.536949,-0.86854 -0.702119,-1.19584 -0.132292,-0.26212 -0.441113,-1.1132 -0.555701,-1.5313 -0.115163,-0.42021 -0.183378,-0.75004 -0.229257,-1.15764 h -0.529627 c 0.106475,0.88304 0.314567,1.62859 0.686679,2.51895 0.226161,0.54114 0.425807,0.91529 0.736517,1.38068 0.381632,0.5716 0.439932,0.6506 0.727495,0.98453 0.641282,0.74471 1.42603,1.41123 2.217479,1.88362 0.06377,0.038 0.115933,0.0796 0.115933,0.0922 0,0.0601 -0.937569,0.79873 -1.132054,0.89186 -0.09061,0.0434 -0.104447,0.0413 -0.231969,-0.0338 -0.137673,-0.0811 -0.498674,-0.35587 -0.88886,-0.67664 -0.281088,-0.23108 -0.852276,-0.79691 -1.182704,-1.17167 -0.568589,-0.64487 -0.97116,-1.23171 -1.443955,-2.10466 -0.352724,-0.65126 -0.717575,-1.65472 -0.888958,-2.44524 -0.128555,-0.59299 -0.194968,-0.95045 -0.232971,-1.3198 h -0.51418 c 0.01287,0.16286 0.01464,0.2959 0.0022,0.30659 -0.123913,0.10629 -0.737359,0.12809 -1.005795,0.0357 -0.220571,-0.0759 -0.407739,-0.19493 -0.558807,-0.34229 h -0.631818 c 0.07057,0.1004 0.154844,0.19901 0.254733,0.29967 0.208808,0.21042 0.297631,0.27511 0.51438,0.37478 0.144082,0.0662 0.3523,0.14319 0.462734,0.17089 0.220836,0.0554 0.709282,0.0662 0.90791,0.0202 0.068,-0.0157 0.134244,-0.0181 0.147225,-0.005 0.01293,0.0129 0.04425,0.13409 0.0695,0.26908 0.02523,0.13498 0.09643,0.43598 0.158156,0.66893 0.06173,0.23293 0.10478,0.44291 0.09568,0.46664 -0.0415,0.10819 -0.90655,0.17945 -1.429814,0.11774 -0.821179,-0.0968 -1.695349,-0.58749 -2.225707,-1.2492 -0.294975,-0.36802 -0.501521,-0.738 -0.629712,-1.13346 h -0.580972 c 0.07361,0.26548 0.161203,0.48493 0.29876,0.75688 0.572416,1.13167 1.664845,1.93299 2.9532,2.16633 0.388194,0.0703 1.013908,0.068 1.414569,-0.005 0.463743,-0.0848 0.417725,-0.10572 0.568133,0.25854 0.07218,0.1748 0.202043,0.466 0.288533,0.64706 0.08649,0.18108 0.145489,0.34102 0.131075,0.35543 -0.04197,0.0419 -0.722396,0.20501 -1.001378,0.23999 -0.731922,0.0918 -1.706928,-0.007 -2.444337,-0.24812 -0.399201,-0.13042 -1.157613,-0.51421 -1.507337,-0.76289 -0.357623,-0.2543 -0.999797,-0.8897 -1.252103,-1.23877 -0.473944,-0.65568 -0.787907,-1.38081 -0.940406,-2.16934 H 81.18215 c 0.02059,0.11148 0.04333,0.22377 0.0707,0.33848 0.461281,1.93358 1.940875,3.60422 3.800938,4.29165 1.333791,0.49292 2.599146,0.53468 3.985068,0.13157 0.117222,-0.0341 0.225817,-0.0542 0.241293,-0.0446 0.01548,0.01 0.105849,0.13788 0.20078,0.28511 0.09494,0.14723 0.277781,0.40504 0.406367,0.57286 0.208559,0.27218 0.228281,0.30908 0.182325,0.34268 -0.02835,0.0207 -0.243316,0.10195 -0.477673,0.18042 -0.376127,0.12595 -0.598792,0.18165 -1.199052,0.29996 -0.681303,0.13428 -1.892965,0.12737 -2.550439,-0.0145 -0.866611,-0.18705 -1.127487,-0.26622 -1.65436,-0.50234 -0.973127,-0.4361 -1.666311,-0.91054 -2.380751,-1.62929 -1.160703,-1.1677 -1.886527,-2.63055 -2.114084,-4.25194 z m 0.768311,0 c 0.02206,0.14334 0.05277,0.29805 0.09788,0.50907 0.188102,0.87972 0.694259,1.95834 1.280185,2.72805 0.661662,0.8692 1.728796,1.72313 2.696159,2.1576 0.672718,0.30214 1.28345,0.46997 2.086905,0.57336 0.756754,0.0974 1.642749,0.0612 2.35979,-0.0963 0.348539,-0.0766 0.620512,-0.16158 0.634628,-0.19837 0.01946,-0.0508 -0.246177,-0.44929 -0.299563,-0.44929 -0.0221,0 -0.108693,0.0198 -0.192554,0.0439 -0.202855,0.0585 -0.582217,0.12975 -0.932183,0.175 -0.464759,0.0601 -1.416258,0.0208 -1.923635,-0.0793 -2.076372,-0.41004 -3.776022,-1.71077 -4.687088,-3.58702 -0.299081,-0.61593 -0.454969,-1.09924 -0.57305,-1.77672 z m 2.06053,0 c 0.03579,0.16648 0.0818,0.32964 0.146321,0.52471 0.650199,1.966 2.538808,3.38285 4.603346,3.45334 0.505016,0.0172 1.202201,-0.0493 1.270257,-0.12115 0.02945,-0.0311 0.01514,-0.0878 -0.06759,-0.26757 l -0.105001,-0.22816 -0.146927,0.0197 c -0.08078,0.0109 -0.341596,0.0284 -0.579665,0.0389 -2.109416,0.0929 -4.026826,-1.34886 -4.54488,-3.41734 -2.02e-4,-9.1e-4 -3.95e-4,-0.002 -6.07e-4,-0.002 z m 2.130531,0 c 0.346384,0.85799 1.058753,1.53001 1.954424,1.82265 0.235045,0.0768 0.594874,0.12389 0.943012,0.12355 0.330228,-3e-4 0.339902,-0.008 0.293247,-0.23487 -0.0581,-0.28236 -0.06562,-0.28999 -0.286628,-0.29024 -1.038552,-0.001 -1.888171,-0.51984 -2.330003,-1.42109 z m 4.365664,0 c 0.0155,0.15053 0.0319,0.28917 0.04974,0.40096 0.05515,0.3454 0.262253,1.22991 0.386315,1.65014 0.176605,0.59825 0.763125,1.87396 1.032367,2.24546 0.05546,0.0765 0.189735,0.2713 0.298361,0.43285 0.503095,0.74822 1.340336,1.62832 2.101746,2.20916 0.418942,0.31959 0.39201,0.31058 0.571244,0.18935 0.08352,-0.0565 0.177263,-0.13101 0.208303,-0.16568 0.05555,-0.0621 0.05354,-0.065 -0.12516,-0.18634 -0.315322,-0.21413 -0.809205,-0.62191 -1.145199,-0.94552 -1.071182,-1.03168 -1.932674,-2.37975 -2.403815,-3.76152 -0.24687,-0.72404 -0.391861,-1.35583 -0.466844,-2.06886 z m 2.042876,0 c 0.05344,0.39012 0.12533,0.72228 0.231465,1.08523 0.479019,1.638 1.246637,2.85567 2.501802,3.96861 0.344159,0.30516 0.855741,0.68813 1.01723,0.7615 0.08634,0.0392 0.09265,0.0358 0.238583,-0.12867 0.08246,-0.0929 0.150392,-0.192 0.150936,-0.22014 3.03e-4,-0.0291 -0.06245,-0.0879 -0.145822,-0.13629 -0.57584,-0.33406 -1.540659,-1.21587 -1.978394,-1.8081 -0.538217,-0.72819 -0.978549,-1.60157 -1.227329,-2.43461 -0.113433,-0.37985 -0.190542,-0.72652 -0.241196,-1.08753 z m 2.01159,0 c 0.03836,0.26106 0.09777,0.48691 0.199979,0.80432 0.425478,1.32135 1.271478,2.43889 2.43982,3.22267 1.459544,0.97914 3.26735,1.25698 5.075101,0.78015 0.15554,-0.041 0.48945,-0.16564 0.74203,-0.277 0.80542,-0.35509 1.28587,-0.67744 1.86939,-1.25391 0.6043,-0.59699 1.00272,-1.17564 1.322,-1.92003 0.20589,-0.47999 0.34019,-0.90961 0.4175,-1.3562 h -0.60042 c -0.006,0.0299 -0.0106,0.0599 -0.0166,0.0898 -0.19625,0.97092 -0.75416,2.00731 -1.46572,2.72274 -1.08349,1.08937 -2.41184,1.63811 -3.965809,1.63811 -1.494467,0 -2.829961,-0.55367 -3.888793,-1.61224 -0.508209,-0.50809 -0.849954,-1.01166 -1.142087,-1.68264 -0.181643,-0.4172 -0.292939,-0.75554 -0.363147,-1.15573 z m 1.101569,0 c 0.09413,0.45592 0.243326,0.85005 0.474366,1.29342 0.310474,0.59583 0.63417,1.00735 1.140285,1.44998 0.654945,0.57279 1.526574,0.98834 2.458875,1.17217 0.426407,0.0841 1.341439,0.0772 1.793259,-0.0135 0.493886,-0.0992 0.874046,-0.22938 1.329426,-0.45541 1.38751,-0.68869 2.3585,-1.97749 2.67701,-3.44662 h -0.56794 c -0.12482,0.50513 -0.33943,0.99626 -0.64405,1.45409 -0.25267,0.37973 -0.81295,0.94216 -1.19635,1.20095 -0.49973,0.33733 -1.12053,0.58789 -1.739303,0.70202 -0.390484,0.072 -1.176156,0.0732 -1.559287,0.002 -1.015341,-0.18783 -1.832002,-0.63638 -2.544323,-1.39773 -0.511927,-0.54716 -0.8553,-1.1846 -1.040291,-1.93095 -0.0029,-0.0118 -0.0043,-0.0189 -0.007,-0.0302 z m 1.026256,0 c 0.424133,1.50539 1.628315,2.61598 3.180152,2.92602 0.3966,0.0792 1.124696,0.0703 1.550261,-0.0189 1.423732,-0.29877 2.618442,-1.3627 3.041452,-2.7086 0.0211,-0.0671 0.0398,-0.13296 0.0575,-0.19847 h -0.57225 c -0.16893,0.51089 -0.43681,0.96551 -0.78987,1.33605 -0.69551,0.72992 -1.572787,1.10487 -2.584943,1.10487 -0.55964,0 -1.056866,-0.11555 -1.531006,-0.35582 -0.805687,-0.40827 -1.495226,-1.18946 -1.758861,-1.99253 -0.01002,-0.0305 -0.01907,-0.0615 -0.02808,-0.0926 z m 1.075998,0 c 0.07916,0.21934 0.185648,0.42212 0.32744,0.63222 0.436846,0.6473 1.204793,1.14395 1.981905,1.28159 0.100899,0.0179 0.332436,0.0325 0.514479,0.0325 1.301373,0 2.385493,-0.75908 2.829443,-1.9463 h -0.56784 c -0.007,0.0153 -0.0133,0.0289 -0.0211,0.0448 -0.56278,1.15384 -1.930099,1.69475 -3.107046,1.22914 -0.629005,-0.24885 -1.104403,-0.7005 -1.366533,-1.27397 z m 1.156326,0 c 0.190747,0.31055 0.460322,0.56423 0.788568,0.72429 0.323496,0.15774 0.600138,0.2112 1.00028,0.19325 0.556723,-0.025 0.98501,-0.22565 1.370443,-0.64194 0.0797,-0.0861 0.15009,-0.17847 0.21171,-0.2756 h -0.662709 c -0.278156,0.26323 -0.661431,0.43134 -1.027654,0.43134 -0.36765,0 -0.738658,-0.1707 -1.01382,-0.43134 z m 9.171291,0 c -0.13068,0.97455 -0.44781,1.91721 -0.94361,2.74982 -0.63662,1.06906 -1.39462,1.86945 -2.42137,2.55665 -0.65609,0.43912 -1.54581,0.81745 -2.38547,1.01442 -0.5431,0.1274 -0.903907,0.17262 -1.523782,0.19105 -0.488066,0.0145 -0.665909,0.007 -1.051228,-0.0452 -0.564481,-0.0764 -1.099155,-0.19643 -1.623169,-0.36425 -0.02917,-0.009 -0.107754,0.0568 -0.211609,0.17782 -0.188545,0.21979 -0.186362,0.22677 0.09758,0.32012 0.24841,0.0816 0.765153,0.22392 0.902498,0.24841 0.06802,0.0121 0.137545,0.0322 0.154542,0.0447 0.07296,0.0537 0.883669,0.10831 1.607729,0.10831 0.609837,0 0.844773,-0.012 1.113099,-0.0573 1.6331,-0.27531 2.8586,-0.83506 4.08917,-1.86748 0.65427,-0.5489 1.23897,-1.25534 1.69548,-2.04879 0.32201,-0.55965 0.46584,-0.87731 0.67194,-1.48347 0.20504,-0.6031 0.32061,-1.05951 0.3836,-1.54485 z m -26.910942,2.53199 v 1.14449 c 1.300293,2.14807 3.465421,3.67306 6.032059,4.19086 1.246255,0.25142 2.755453,0.21602 3.973736,-0.0932 0.397606,-0.1009 1.184336,-0.36468 1.285599,-0.43104 l 0.08213,-0.0538 -0.181421,-0.18383 c -0.108596,-0.10998 -0.200093,-0.17792 -0.227856,-0.16929 -0.0255,0.008 -0.228472,0.0766 -0.450998,0.15254 -0.447614,0.15289 -0.926452,0.26751 -1.465917,0.35071 -0.505996,0.0781 -1.881238,0.0787 -2.365207,0.001 -0.554925,-0.0889 -0.631579,-0.10419 -1.035781,-0.20639 -1.146767,-0.28993 -2.44746,-0.95097 -3.337003,-1.69588 -0.866436,-0.72556 -1.531674,-1.53447 -2.051905,-2.49528 -0.09252,-0.17087 -0.177727,-0.34098 -0.257441,-0.51117 z m 27.632322,1.43513 c -0.35302,0.574 -0.76858,1.12132 -1.24548,1.6353 -0.88503,0.95384 -2.2639,1.85271 -3.6119,2.35458 -1.19976,0.44669 -2.605751,0.65833 -3.82812,0.57626 -1.248675,-0.0838 -2.339081,-0.34252 -3.351243,-0.79499 l -0.176308,-0.0788 -0.08645,0.0673 c -0.04751,0.037 -0.145555,0.1109 -0.217827,0.16417 -0.206095,0.15191 -0.22324,0.13414 0.381601,0.39454 1.061682,0.45707 2.110034,0.69777 3.39096,0.77864 1.366657,0.0863 2.951347,-0.16697 4.196577,-0.67063 0.11053,-0.0447 0.25977,-0.10175 0.33165,-0.12677 0.26602,-0.0926 1.14617,-0.5796 1.5982,-0.88434 0.89939,-0.60635 1.4257,-1.06935 2.10195,-1.84903 0.18158,-0.20934 0.35361,-0.42636 0.51639,-0.64996 z m -27.632322,2.1559 v 0.7294 c 0.44541,0.42766 0.966472,0.87074 1.37967,1.16124 0.93544,0.65767 2.185235,1.25738 3.294581,1.58085 2.673403,0.77955 5.602033,0.52226 8.054377,-0.70763 0.18327,-0.0919 0.341047,-0.17979 0.350613,-0.19527 0.01864,-0.0301 -0.344996,-0.3139 -0.402259,-0.3139 -0.01885,0 -0.206757,0.0822 -0.417503,0.18252 -0.946602,0.45067 -2.133207,0.79052 -3.204122,0.91775 -0.531706,0.0632 -1.794938,0.0721 -2.295905,0.0162 -0.6506,-0.0726 -1.429084,-0.22939 -2.087006,-0.42041 -1.694115,-0.49189 -3.315417,-1.50626 -4.612373,-2.88581 -0.02104,-0.0224 -0.03965,-0.043 -0.06007,-0.065 z m 27.632322,1.01111 c -2.39253,2.39575 -5.75814,3.63796 -9.15525,3.36087 -0.549565,-0.0448 -0.788574,-0.0784 -1.329425,-0.18683 -1.125491,-0.22567 -2.285453,-0.64508 -3.17283,-1.14731 l -0.360738,-0.20428 -0.204287,0.11473 c -3.236537,1.81828 -7.387744,1.90569 -10.74723,0.22625 -1.062348,-0.53108 -1.878627,-1.08167 -2.662562,-1.8054 v 9.98213 H 107.055 Z"
         inkscape:export-filename="C:\Users\ilari\Desktop\rect21953.png"
         inkscape:export-xdpi="96"
         inkscape:export-ydpi="96" />
      <text
         xml:space="preserve"
         style="font-style:normal;font-variant:normal;font-weight:normal;font-stretch:normal;font-size:3.68854px;line-height:1.25;font-family:'Arial Rounded MT Bold';-inkscape-font-specification:'Arial Rounded MT Bold, Normal';font-variant-ligatures:normal;font-variant-caps:normal;font-variant-numeric:normal;font-variant-east-asian:normal;letter-spacing:0.180504px;fill:#ffffff;fill-opacity:1;stroke:none;stroke-width:0.092214"
         x="80.559479"
         y="159.96242"
         id="text561-3-8"
         inkscape:export-filename="C:\Users\ilari\Desktop\rect21953.png"
         inkscape:export-xdpi="96"
         inkscape:export-ydpi="96"><tspan
           sodipodi:role="line"
           id="tspan559-8-9"
           style="font-style:normal;font-variant:normal;font-weight:normal;font-stretch:normal;font-size:3.68854px;font-family:'Gill Sans MT';-inkscape-font-specification:'Gill Sans MT, Normal';font-variant-ligatures:normal;font-variant-caps:normal;font-variant-numeric:normal;font-variant-east-asian:normal;fill:#ffffff;stroke-width:0.092214;fill-opacity:1"
           x="80.559479"
           y="159.96242">DEVANTARCH</tspan></text>
    </g>
  </g>
</svg>
